<svg width="977" height="240" xmlns="http://www.w3.org/2000/svg"><g fill="none" fill-rule="evenodd"><path d="M111.888 81.388c-9.45-1.26-10.584-2.52-10.836-11.466V15.49c.252-9.072 2.016-10.962 10.836-11.466V1H80.766L56.07 59.212 31.5 1H.252v3.024c8.82.756 10.836 2.394 10.962 8.82v58.59C11.088 78.868 9.45 80.38 0 81.388v3.024h28.854v-3.024c-9.954-.756-12.348-3.15-12.474-12.222v-57.96l31.122 73.206h3.276L81.9 9.316v62.748c-.252 7.056-1.89 8.568-10.962 9.324v3.024h40.95v-3.024zm42.39.72c-7.008-.384-8.832-1.824-8.928-6.72V29.884c.096-4.992 2.112-6.528 8.928-6.72V20.86H121.35v2.304c6.624.384 8.544 1.824 8.736 6.72v45.504c-.096 4.8-1.92 6.144-8.736 6.72v2.304h32.928v-2.304zM219.966 63.1h-2.688c-3.168 7.296-4.992 10.272-8.256 13.248-3.84 3.552-9.12 5.184-16.512 5.184-5.664 0-7.392-1.248-7.392-5.28V31.9c.192-7.296 1.536-8.448 9.504-8.736V20.86H161.79v2.304c6.144.384 7.968 1.824 8.064 6.72v45.504c-.096 4.896-1.44 5.952-8.064 6.72v2.304h54.336l3.84-21.312zm67.032 0h-2.688c-3.168 7.296-4.992 10.272-8.256 13.248-3.84 3.552-9.12 5.184-16.512 5.184-5.664 0-7.392-1.248-7.392-5.28V31.9c.192-7.296 1.536-8.448 9.504-8.736V20.86h-32.832v2.304c6.144.384 7.968 1.824 8.064 6.72v45.504c-.096 4.896-1.44 5.952-8.064 6.72v2.304h54.336l3.84-21.312zm52.824-23.329V19.324h-2.784c-.768 2.496-1.344 3.168-3.072 3.168-.864 0-1.92-.288-3.936-.96-4.32-1.536-7.296-2.112-11.04-2.112-12.768 0-20.544 7.296-20.544 19.2 0 8.16 4.896 14.111 16.032 19.487l6.336 2.976c8.16 3.84 10.464 6.432 10.464 11.423 0 6.432-4.608 10.656-11.808 10.656-5.568 0-10.176-2.4-13.632-7.008-2.688-3.456-3.936-6.623-5.568-13.151h-2.688v23.231h2.688c.672-2.496 1.344-3.264 2.88-3.264.768 0 1.824.288 3.84.96 4.512 1.632 8.064 2.304 12.192 2.304 13.92 0 23.328-7.968 23.328-19.871 0-7.008-4.224-14.112-10.272-17.088l-13.824-6.912c-7.584-3.744-9.696-6.048-9.696-10.655 0-5.856 3.936-9.408 10.272-9.408 4.32 0 8.256 1.824 11.616 5.28 3.168 3.264 4.608 6.048 6.624 12.191h2.592zm263.236 41.205c-9.45-1.26-10.584-2.52-10.836-11.466V15.078c.252-9.072 2.016-10.962 10.836-11.466V.588h-31.122L547.24 58.8 522.67.588h-31.248v3.024c8.82.756 10.836 2.394 10.962 8.82v58.59c-.126 7.434-1.764 8.946-11.214 9.954V84h28.854v-3.024c-9.954-.756-12.348-3.15-12.474-12.222v-57.96L538.672 84h3.276L573.07 8.904v62.748c-.252 7.056-1.89 8.568-10.962 9.324V84h40.95v-3.024zm42.39.72c-7.008-.384-8.832-1.824-8.928-6.72V29.472c.096-4.992 2.112-6.528 8.928-6.72v-2.304H612.52v2.304c6.624.384 8.544 1.824 8.736 6.72v45.504c-.096 4.8-1.92 6.144-8.736 6.72V84h32.928v-2.304zm65.688-19.008h-2.688c-3.168 7.296-4.992 10.272-8.256 13.248-3.84 3.552-9.12 5.184-16.512 5.184-5.664 0-7.392-1.248-7.392-5.28V31.488c.192-7.296 1.536-8.448 9.504-8.736v-2.304H652.96v2.304c6.144.384 7.968 1.824 8.064 6.72v45.504c-.096 4.896-1.44 5.952-8.064 6.72V84h54.336l3.84-21.312zm67.032 0h-2.688c-3.168 7.296-4.992 10.272-8.256 13.248-3.84 3.552-9.12 5.184-16.512 5.184-5.664 0-7.392-1.248-7.392-5.28V31.488c.192-7.296 1.536-8.448 9.504-8.736v-2.304h-32.832v2.304c6.144.384 7.968 1.824 8.064 6.72v45.504c-.096 4.896-1.44 5.952-8.064 6.72V84h54.336l3.84-21.312zm52.536-23.328V18.912h-2.784c-.768 2.496-1.344 3.168-3.072 3.168-.864 0-1.92-.288-3.936-.96-4.32-1.536-7.296-2.112-11.04-2.112-12.768 0-20.544 7.296-20.544 19.2 0 8.16 4.896 14.112 16.032 19.488l6.336 2.976c8.16 3.84 10.464 6.432 10.464 11.424 0 6.432-4.608 10.656-11.808 10.656-5.568 0-10.176-2.4-13.632-7.008-2.688-3.456-3.936-6.624-5.568-13.152h-2.688v23.232h2.688c.672-2.496 1.344-3.264 2.88-3.264.768 0 1.824.288 3.84.96 4.512 1.632 8.064 2.304 12.192 2.304 13.92 0 23.328-7.968 23.328-19.872 0-7.008-4.224-14.112-10.272-17.088l-13.824-6.912c-7.584-3.744-9.696-6.048-9.696-10.656 0-5.856 3.936-9.408 10.272-9.408 4.32 0 8.256 1.824 11.616 5.28 3.168 3.264 4.608 6.048 6.624 12.192h2.592zM453.732 72.765l-1.956-1.047c-.88 1.517-1.85 2.767-2.911 3.753-1.062.985-2.366 1.478-3.912 1.478a8.38 8.38 0 0 1-2.707-.455c-.894-.303-1.842-.773-2.843-1.41-1-.636-2.084-1.44-3.252-2.41a109.418 109.418 0 0 1-3.934-3.457c2.153-2.578 3.957-4.958 5.412-7.142a116.91 116.91 0 0 0 3.821-6.095 118.41 118.41 0 0 1 2.388-3.912c.683-1.061 1.388-1.933 2.115-2.615a7.284 7.284 0 0 1 2.411-1.524c.88-.333 1.956-.56 3.23-.682v-1.865h-19.741v1.865c1.637.242 2.91.803 3.82 1.683.91.88 1.365 2.092 1.365 3.639 0 1.061-.197 2.183-.591 3.366a21.733 21.733 0 0 1-1.592 3.593 32.667 32.667 0 0 1-2.343 3.639 48.767 48.767 0 0 1-2.797 3.457 157.849 157.849 0 0 1-4.14-4.844 138.409 138.409 0 0 1-3.775-4.822 102.151 102.151 0 0 1-3.525-5.026 126.388 126.388 0 0 1-3.389-5.458 103.942 103.942 0 0 0 5.55-2.502 27.29 27.29 0 0 0 5.299-3.343 17.484 17.484 0 0 0 3.957-4.503c1.046-1.714 1.57-3.692 1.57-5.936a9.855 9.855 0 0 0-.979-4.344c-.652-1.35-1.592-2.532-2.82-3.548-1.228-1.016-2.721-1.82-4.48-2.411-1.759-.591-3.745-.887-5.959-.887-2.547 0-4.92.402-7.118 1.205-2.199.804-4.11 1.949-5.732 3.435a16.02 16.02 0 0 0-3.82 5.321c-.925 2.062-1.388 4.367-1.388 6.914 0 1.577.13 3.078.387 4.503.258 1.426.546 2.692.864 3.799.319 1.106.63 2.024.933 2.751.303.728.5 1.198.591 1.41a97.224 97.224 0 0 0-4.503 2.116 41.864 41.864 0 0 0-4.503 2.615 38.456 38.456 0 0 0-4.14 3.184 21.387 21.387 0 0 0-3.411 3.82 18.678 18.678 0 0 0-2.32 4.595c-.576 1.668-.864 3.472-.864 5.413 0 2.214.432 4.283 1.296 6.209.865 1.925 2.115 3.6 3.753 5.026 1.637 1.425 3.631 2.547 5.981 3.366s5.011 1.228 7.983 1.228c2.365 0 4.58-.243 6.641-.728a35.799 35.799 0 0 0 5.777-1.865 36.18 36.18 0 0 0 4.958-2.547 65.228 65.228 0 0 0 4.14-2.775 67.456 67.456 0 0 0 3.274 2.98 24.771 24.771 0 0 0 3.548 2.524 18.802 18.802 0 0 0 4.026 1.751c1.44.44 3.01.66 4.707.66 2.335 0 4.36-.478 6.073-1.433 1.713-.955 3.191-2.115 4.435-3.48a22.103 22.103 0 0 0 3.093-4.298 97.023 97.023 0 0 0 2.047-3.934zm-31.295-39.53c-.006 1.679-.34 3.097-1 4.255-.668 1.168-1.471 2.153-2.411 2.957a12.826 12.826 0 0 1-3.002 1.933c-1.062.485-1.971.894-2.73 1.228a72.46 72.46 0 0 1-1.137-2.434 45.547 45.547 0 0 1-1.41-3.547 45.578 45.578 0 0 1-1.205-4.003c-.349-1.38-.523-2.646-.523-3.798 0-.82.113-1.645.34-2.48a6.865 6.865 0 0 1 1.093-2.274 6.029 6.029 0 0 1 1.91-1.683c.773-.44 1.706-.66 2.797-.66 1.092 0 2.085.297 2.98.888.894.591 1.66 1.38 2.297 2.365.637.986 1.13 2.108 1.478 3.366.345 1.244.519 2.54.523 3.887zm-2.73 41.85c-.211.15-.651.447-1.318.886-.667.44-1.47.887-2.41 1.342a23.83 23.83 0 0 1-3.117 1.228 11.07 11.07 0 0 1-3.388.546c-1.85 0-3.662-.47-5.436-1.41a17.567 17.567 0 0 1-4.776-3.73 19.024 19.024 0 0 1-3.411-5.322 15.455 15.455 0 0 1-1.297-6.186c0-1.455.235-2.76.705-3.912a10.471 10.471 0 0 1 1.91-3.07 13.93 13.93 0 0 1 2.73-2.342 19.213 19.213 0 0 1 3.161-1.683c.94 1.91 1.94 3.79 3.002 5.64a85.959 85.959 0 0 0 3.412 5.458c2.729 4.094 6.14 8.279 10.234 12.554zM908.9 72.9h-1.4c-1.65 3.8-2.6 5.35-4.3 6.9-2 1.85-4.75 2.7-8.6 2.7-2.95 0-3.85-.65-3.85-2.75v-23.1c.1-3.8.8-4.4 4.95-4.55v-1.2h-17.1v1.2c3.2.2 4.15.95 4.2 3.5v23.7c-.05 2.55-.75 3.1-4.2 3.5V84h28.3l2-11.1zm34.55 0h-1.4c-1.65 3.8-2.6 5.35-4.3 6.9-2 1.85-4.75 2.7-8.6 2.7-2.95 0-3.85-.65-3.85-2.75v-23.1c.1-3.8.8-4.4 4.95-4.55v-1.2h-17.1v1.2c3.2.2 4.15.95 4.2 3.5v23.7c-.05 2.55-.75 3.1-4.2 3.5V84h28.3l2-11.1zm4.1 11.1h16.35v-1.2c-3.8-.45-4.2-.9-4.3-4.55v-9.1c6.65-.05 8.3-.2 10.45-1.05 3.95-1.55 6.1-4.5 6.1-8.35 0-5.65-4.6-8.85-12.85-8.85h-15.75v1.2c3.35.25 4 1 4.1 4.5v21.65c-.05 3.05-.75 4.1-2.95 4.35-.15 0-.65.1-1.15.2V84zm12.05-29.7c0-1.15.8-1.7 2.45-1.7 4.05 0 5.7 2.15 5.7 7.4 0 3.15-.55 5-1.9 6.1-1.15 1-2.75 1.35-6.25 1.35V54.3z" fill="#4A92C8"/><path d="M116.9 138.28c3.36.2 3.8.6 3.84 3.6v17.76c-.04 3-.56 3.48-3.84 3.6v.76h13.36c3.08 0 5.96-.84 7.44-2.2a6.645 6.645 0 0 0 2.24-5c0-1.76-.68-3.36-1.96-4.52-1.2-1.08-2.28-1.56-4.88-2.2 2.08-.52 2.92-.92 3.88-1.76 1-.88 1.6-2.32 1.6-4 0-4.48-3.6-6.8-10.48-6.8h-11.2v.76zm7.92 12.68c3.88 0 5.72.24 7.16.84 2.28.92 3.36 2.56 3.36 5.04 0 2.16-.84 3.72-2.44 4.64-1.28.72-2.92 1.04-5.56 1.04-1.96 0-2.52-.36-2.52-1.64v-9.92zm0-1.56v-9.2c.04-.88.2-1.12.88-1.16l1.76-.04c4.44-.12 7.04 1.92 7.04 5.48 0 3.16-2.04 4.84-5.88 4.88l-3.8.04zm48.49 13.84c-1.8-.12-2.2-.52-3.6-3.48l-9.96-22.72h-.8l-8.32 19.64c-2.56 5.84-3.04 6.48-4.96 6.56v.76h7.92v-.76c-1.92 0-2.72-.48-2.72-1.64 0-.48.12-1.04.32-1.56l1.84-4.68h10.48l1.64 3.84c.48 1.08.76 2.12.76 2.68 0 1-.68 1.32-2.8 1.36v.76h10.2v-.76zm-19.6-9.52l4.6-11 4.64 11h-9.24zm50.85 9.52c-1.52-.12-2.32-.52-3.48-1.88l-8.24-10.12c5.08-1 7.24-3 7.24-6.68 0-1.72-.52-3.2-1.56-4.36-1.52-1.64-4.84-2.68-8.6-2.68h-11.04v.76c2.96.32 3.36.68 3.4 3.6v17.32c-.04 3.4-.4 3.8-3.4 4.04v.76h11.08v-.76c-3.08-.2-3.56-.68-3.6-3.6v-7.88l2.24-.08 9.52 12.32h6.44v-.76zm-18.2-22.8c0-1.12.44-1.44 2.04-1.44 5 0 7.32 1.72 7.32 5.48 0 2-.84 3.68-2.28 4.44-1.84 1.04-3.24 1.28-7.08 1.36v-9.84zm49.97 22.8c-1.52-.12-2.32-.52-3.48-1.88l-8.24-10.12c5.08-1 7.24-3 7.24-6.68 0-1.72-.52-3.2-1.56-4.36-1.52-1.64-4.84-2.68-8.6-2.68h-11.04v.76c2.96.32 3.36.68 3.4 3.6v17.32c-.04 3.4-.4 3.8-3.4 4.04v.76h11.08v-.76c-3.08-.2-3.56-.68-3.6-3.6v-7.88l2.24-.08 9.52 12.32h6.44v-.76zm-18.2-22.8c0-1.12.44-1.44 2.04-1.44 5 0 7.32 1.72 7.32 5.48 0 2-.84 3.68-2.28 4.44-1.84 1.04-3.24 1.28-7.08 1.36v-9.84zM242.42 164h11.88v-.76c-3.28-.08-3.84-.64-3.92-3.6v-17.76c.08-3 .6-3.48 3.92-3.6v-.76h-11.88v.76c3.4.2 3.84.6 3.88 3.6v17.76c-.04 3.04-.52 3.48-3.88 3.6v.76zm34.73-27.04h-.84c-.16.92-.6 1.36-1.28 1.36-.4 0-1.08-.16-1.76-.48-1.48-.56-2.96-.88-4.28-.88-1.68 0-3.44.68-4.76 1.84-1.4 1.24-2.12 2.92-2.12 5 0 3.2 1.76 5.44 6.24 7.8 2.88 1.56 4.96 3.16 5.96 4.68.36.52.56 1.36.56 2.36 0 2.64-2 4.48-4.92 4.48-3.6 0-6.08-2.2-8.08-7.08h-.92l1.2 8.48h.88c.04-.76.52-1.32 1.12-1.32.44 0 1.12.16 1.88.44 1.52.6 3.16.92 4.72.92 4.64 0 8.16-3.16 8.16-7.28 0-3.28-2.2-5.88-7.48-8.76-4.2-2.28-5.88-4.04-5.88-6.24s1.68-3.68 4.16-3.68c1.8 0 3.48.76 4.88 2.2 1.24 1.28 1.8 2.32 2.44 4.68h1l-.88-8.52zm25.93 26.28c-3.28-.16-3.8-.68-3.84-3.6V139.2h2.16c4.64.08 5.48.76 6.36 5.12h.96l-.24-6.8h-22.56l-.24 6.8h.96c.92-4.36 1.76-5.04 6.36-5.12h2.16v20c-.04 3.44-.4 3.84-3.76 4.04v.76h11.68v-.76zm35.13-6h-1.12c-1.92 4.24-3.72 5.24-9.44 5.28h-1.08c-4.16-.12-4.2-.16-4.2-1.72v-9.88h6.16c3.36.08 3.88.56 4.4 3.84h.92v-9.28h-.92c-.48 3.24-1.04 3.72-4.4 3.8h-6.16v-8.88c.04-1.2.2-1.36 1.32-1.36h5.4c4.64.08 5.44.64 6.08 4.2h1l-.12-5.72h-21.24v.76c2.92.2 3.4.72 3.48 3.6v17.76c-.08 2.88-.6 3.44-3.48 3.6v.76h21.6l1.8-6.76zm31.17 6c-1.52-.12-2.32-.52-3.48-1.88l-8.24-10.12c5.08-1 7.24-3 7.24-6.68 0-1.72-.52-3.2-1.56-4.36-1.52-1.64-4.84-2.68-8.6-2.68H343.7v.76c2.96.32 3.36.68 3.4 3.6v17.32c-.04 3.4-.4 3.8-3.4 4.04v.76h11.08v-.76c-3.08-.2-3.56-.68-3.6-3.6v-7.88l2.24-.08 9.52 12.32h6.44v-.76zm-18.2-22.8c0-1.12.44-1.44 2.04-1.44 5 0 7.32 1.72 7.32 5.48 0 2-.84 3.68-2.28 4.44-1.84 1.04-3.24 1.28-7.08 1.36v-9.84zm40.49-3.48h-.84c-.16.92-.6 1.36-1.28 1.36-.4 0-1.08-.16-1.76-.48-1.48-.56-2.96-.88-4.28-.88-1.68 0-3.44.68-4.76 1.84-1.4 1.24-2.12 2.92-2.12 5 0 3.2 1.76 5.44 6.24 7.8 2.88 1.56 4.96 3.16 5.96 4.68.36.52.56 1.36.56 2.36 0 2.64-2 4.48-4.92 4.48-3.6 0-6.08-2.2-8.08-7.08h-.92l1.2 8.48h.88c.04-.76.52-1.32 1.12-1.32.44 0 1.12.16 1.88.44 1.52.6 3.16.92 4.72.92 4.64 0 8.16-3.16 8.16-7.28 0-3.28-2.2-5.88-7.48-8.76-4.2-2.28-5.88-4.04-5.88-6.24s1.68-3.68 4.16-3.68c1.8 0 3.48.76 4.88 2.2 1.24 1.28 1.8 2.32 2.44 4.68h1l-.88-8.52zm51.3 10h-8.64v.84c2 .2 2.56.6 2.56 1.8 0 1.76-1.04 3.84-3.64 7.28-2.24-2.76-3.52-4.8-5.28-8.24 4.56-2.16 6.2-3.96 6.2-6.84 0-2.84-2.24-4.84-5.4-4.84-3.44 0-6.16 2.72-6.16 6.16 0 1.52.32 2.8 1.4 5.8l-1.52.88c-4.24 2.44-6.28 5.28-6.28 8.64 0 3.8 2.56 6.08 6.84 6.08 3.24 0 5.64-1 8.64-3.64 2.52 2.6 4.48 3.64 6.8 3.64 2.56 0 4.84-1.68 6.04-4.52l-.6-.44c-1.28 1.6-2.16 2.12-3.6 2.12-2.24 0-4.28-1.24-6.16-3.68 1.76-2.36 2.76-3.84 4-6l1.04-1.84c.96-1.64 1.76-2.12 3.76-2.36v-.84zm-15.6.4c-1.2-2.52-1.6-4.04-1.6-5.84 0-1.96 1.24-3.28 3.08-3.28s3.2 1.44 3.2 3.4c0 2.2-1.48 4.04-4.68 5.72zm-2.76 2.92c2.4 4.56 3.8 6.76 6.08 9.56-2.4 1.88-3.92 2.6-5.64 2.6-2.84 0-5.16-2.52-5.16-5.64 0-2.56 1.24-4.28 4.72-6.52zm57.42-13.32h-.84c-.16.92-.6 1.36-1.28 1.36-.4 0-1.08-.16-1.76-.48-1.48-.56-2.96-.88-4.28-.88-1.68 0-3.44.68-4.76 1.84-1.4 1.24-2.12 2.92-2.12 5 0 3.2 1.76 5.44 6.24 7.8 2.88 1.56 4.96 3.16 5.96 4.68.36.52.56 1.36.56 2.36 0 2.64-2 4.48-4.92 4.48-3.6 0-6.08-2.2-8.08-7.08h-.92l1.2 8.48h.88c.04-.76.52-1.32 1.12-1.32.44 0 1.12.16 1.88.44 1.52.6 3.16.92 4.72.92 4.64 0 8.16-3.16 8.16-7.28 0-3.28-2.2-5.88-7.48-8.76-4.2-2.28-5.88-4.04-5.88-6.24s1.68-3.68 4.16-3.68c1.8 0 3.48.76 4.88 2.2 1.24 1.28 1.8 2.32 2.44 4.68h1l-.88-8.52zm22.33 0c-7.64 0-13.08 5.72-13.08 13.8 0 3.76 1.28 7.44 3.44 9.72 2.32 2.52 5.88 4.08 9.4 4.08 7.88 0 13.32-5.56 13.32-13.64 0-3.96-1.16-7.4-3.36-9.76-2.52-2.76-5.88-4.2-9.72-4.2zm0 1.44c1.84 0 3.68.72 5.12 2 2.16 1.96 3.4 5.72 3.4 10.48 0 2.36-.52 5.12-1.32 7.2-.36 1-1.04 2-1.96 2.92-1.4 1.4-3.2 2.12-5.32 2.12-1.84 0-3.64-.72-5.08-1.96-2.04-1.84-3.36-5.88-3.36-10.32 0-4.08 1.12-7.96 2.8-9.84 1.56-1.72 3.52-2.6 5.72-2.6zm30.45-.88h-11.28v.76c2.92.2 3.4.72 3.48 3.6v17.76c-.08 2.88-.6 3.44-3.48 3.6v.76h21.52l1.92-6.96h-1c-1.88 4.2-3.6 5.24-8.76 5.4h-2.68c-3.08-.08-3.4-.2-3.44-1.64v-18.92c.08-2.92.6-3.44 3.72-3.6v-.76zM552.46 164h11.88v-.76c-3.28-.08-3.84-.64-3.92-3.6v-17.76c.08-3 .6-3.48 3.92-3.6v-.76h-11.88v.76c3.4.2 3.84.6 3.88 3.6v17.76c-.04 3.04-.52 3.48-3.88 3.6v.76zm41.65-18.04l-.36-9h-.84c-.24.84-.88 1.32-1.68 1.32-.36 0-.96-.12-1.56-.32-1.96-.68-3.96-1-5.84-1-3.28 0-6.56 1.24-9.08 3.44-2.8 2.48-4.32 6.16-4.32 10.56 0 8.16 5.32 13.6 13.28 13.6 4.52 0 8.52-1.84 10.92-5.08l-.72-.72c-2.96 2.84-5.6 4.04-8.92 4.04-2.52 0-4.76-.8-6.48-2.32-2.2-1.96-3.44-5.56-3.44-10 0-7.28 3.72-11.92 9.52-11.92 2.28 0 4.36.84 5.96 2.4 1.28 1.28 1.88 2.4 2.64 5h.92zm6.85 18.04h11.88v-.76c-3.28-.08-3.84-.64-3.92-3.6v-17.76c.08-3 .6-3.48 3.92-3.6v-.76h-11.88v.76c3.4.2 3.84.6 3.88 3.6v17.76c-.04 3.04-.52 3.48-3.88 3.6v.76zm35.45-.76c-3.28-.16-3.8-.68-3.84-3.6V139.2h2.16c4.64.08 5.48.76 6.36 5.12h.96l-.24-6.8h-22.56l-.24 6.8h.96c.92-4.36 1.76-5.04 6.36-5.12h2.16v20c-.04 3.44-.4 3.84-3.76 4.04v.76h11.68v-.76zm24.73-26.28c-7.64 0-13.08 5.72-13.08 13.8 0 3.76 1.28 7.44 3.44 9.72 2.32 2.52 5.88 4.08 9.4 4.08 7.88 0 13.32-5.56 13.32-13.64 0-3.96-1.16-7.4-3.36-9.76-2.52-2.76-5.88-4.2-9.72-4.2zm0 1.44c1.84 0 3.68.72 5.12 2 2.16 1.96 3.4 5.72 3.4 10.48 0 2.36-.52 5.12-1.32 7.2-.36 1-1.04 2-1.96 2.92-1.4 1.4-3.2 2.12-5.32 2.12-1.84 0-3.64-.72-5.08-1.96-2.04-1.84-3.36-5.88-3.36-10.32 0-4.08 1.12-7.96 2.8-9.84 1.56-1.72 3.52-2.6 5.72-2.6zm45.05 24.84c-1.52-.12-2.32-.52-3.48-1.88l-8.24-10.12c5.08-1 7.24-3 7.24-6.68 0-1.72-.52-3.2-1.56-4.36-1.52-1.64-4.84-2.68-8.6-2.68h-11.04v.76c2.96.32 3.36.68 3.4 3.6v17.32c-.04 3.4-.4 3.8-3.4 4.04v.76h11.08v-.76c-3.08-.2-3.56-.68-3.6-3.6v-7.88l2.24-.08 9.52 12.32h6.44v-.76zm-18.2-22.8c0-1.12.44-1.44 2.04-1.44 5 0 7.32 1.72 7.32 5.48 0 2-.84 3.68-2.28 4.44-1.84 1.04-3.24 1.28-7.08 1.36v-9.84zm40.65-3.48h-.84c-.16.92-.6 1.36-1.28 1.36-.4 0-1.08-.16-1.76-.48-1.48-.56-2.96-.88-4.28-.88-1.68 0-3.44.68-4.76 1.84-1.4 1.24-2.12 2.92-2.12 5 0 3.2 1.76 5.44 6.24 7.8 2.88 1.56 4.96 3.16 5.96 4.68.36.52.56 1.36.56 2.36 0 2.64-2 4.48-4.92 4.48-3.6 0-6.08-2.2-8.08-7.08h-.92l1.2 8.48h.88c.04-.76.52-1.32 1.12-1.32.44 0 1.12.16 1.88.44 1.52.6 3.16.92 4.72.92 4.64 0 8.16-3.16 8.16-7.28 0-3.28-2.2-5.88-7.48-8.76-4.2-2.28-5.88-4.04-5.88-6.24s1.68-3.68 4.16-3.68c1.8 0 3.48.76 4.88 2.2 1.24 1.28 1.8 2.32 2.44 4.68h1l-.88-8.52zm-447.393 96.801h-.868c-1.488 3.286-2.883 4.061-7.316 4.092h-.837c-3.224-.093-3.255-.124-3.255-1.333v-7.657h4.774c2.604.062 3.007.434 3.41 2.976h.713v-7.192h-.713c-.372 2.511-.806 2.883-3.41 2.945h-4.774v-6.882c.031-.93.155-1.054 1.023-1.054h4.185c3.596.062 4.216.496 4.712 3.255h.775l-.093-4.433h-16.461v.589c2.263.155 2.635.558 2.697 2.79v13.764c-.062 2.232-.465 2.666-2.697 2.79V239h16.74l1.395-5.239zm19.384-15.717h-.651c-.124.713-.465 1.054-.992 1.054-.31 0-.837-.124-1.364-.372-1.147-.434-2.294-.682-3.317-.682-1.302 0-2.666.527-3.689 1.426-1.085.961-1.643 2.263-1.643 3.875 0 2.48 1.364 4.216 4.836 6.045 2.232 1.209 3.844 2.449 4.619 3.627.279.403.434 1.054.434 1.829 0 2.046-1.55 3.472-3.813 3.472-2.79 0-4.712-1.705-6.262-5.487h-.713l.93 6.572h.682c.031-.589.403-1.023.868-1.023.341 0 .868.124 1.457.341a10.1 10.1 0 0 0 3.658.713c3.596 0 6.324-2.449 6.324-5.642 0-2.542-1.705-4.557-5.797-6.789-3.255-1.767-4.557-3.131-4.557-4.836 0-1.705 1.302-2.852 3.224-2.852 1.395 0 2.697.589 3.782 1.705.961.992 1.395 1.798 1.891 3.627h.775l-.682-6.603zm21.802 20.367c-2.542-.124-2.945-.527-2.976-2.79V219.78h1.674c3.596.062 4.247.589 4.929 3.968h.744l-.186-5.27h-17.484l-.186 5.27h.744c.713-3.379 1.364-3.906 4.929-3.968h1.674v15.5c-.031 2.666-.31 2.976-2.914 3.131V239h9.052v-.589zm30.172 0c-1.395-.093-1.705-.403-2.79-2.697l-7.719-17.608h-.62l-6.448 15.221c-1.984 4.526-2.356 5.022-3.844 5.084V239h6.138v-.589c-1.488 0-2.108-.372-2.108-1.271 0-.372.093-.806.248-1.209l1.426-3.627h8.122l1.271 2.976c.372.837.589 1.643.589 2.077 0 .775-.527 1.023-2.17 1.054V239h7.905v-.589zm-15.19-7.378l3.565-8.525 3.596 8.525h-7.161zm21.74-11.966c2.604.155 2.945.465 2.976 2.79v13.764c-.031 2.325-.434 2.697-2.976 2.79V239h10.354c2.387 0 4.619-.651 5.766-1.705a5.15 5.15 0 0 0 1.736-3.875c0-1.364-.527-2.604-1.519-3.503-.93-.837-1.767-1.209-3.782-1.705 1.612-.403 2.263-.713 3.007-1.364.775-.682 1.24-1.798 1.24-3.1 0-3.472-2.79-5.27-8.122-5.27h-8.68v.589zm6.138 9.827c3.007 0 4.433.186 5.549.651 1.767.713 2.604 1.984 2.604 3.906 0 1.674-.651 2.883-1.891 3.596-.992.558-2.263.806-4.309.806-1.519 0-1.953-.279-1.953-1.271v-7.688zm0-1.209v-7.13c.031-.682.155-.868.682-.899l1.364-.031c3.441-.093 5.456 1.488 5.456 4.247 0 2.449-1.581 3.751-4.557 3.782l-2.945.031zm28.126-9.207h-8.742v.589c2.263.155 2.635.558 2.697 2.79v13.764c-.062 2.232-.465 2.666-2.697 2.79V239h16.678l1.488-5.394h-.775c-1.457 3.255-2.79 4.061-6.789 4.185h-2.077c-2.387-.062-2.635-.155-2.666-1.271v-14.663c.062-2.263.465-2.666 2.883-2.79v-.589zM408.804 239h9.207v-.589c-2.542-.062-2.976-.496-3.038-2.79v-13.764c.062-2.325.465-2.697 3.038-2.79v-.589h-9.207v.589c2.635.155 2.976.465 3.007 2.79v13.764c-.031 2.356-.403 2.697-3.007 2.79V239zm28.622-20.956h-.651c-.124.713-.465 1.054-.992 1.054-.31 0-.837-.124-1.364-.372-1.147-.434-2.294-.682-3.317-.682-1.302 0-2.666.527-3.689 1.426-1.085.961-1.643 2.263-1.643 3.875 0 2.48 1.364 4.216 4.836 6.045 2.232 1.209 3.844 2.449 4.619 3.627.279.403.434 1.054.434 1.829 0 2.046-1.55 3.472-3.813 3.472-2.79 0-4.712-1.705-6.262-5.487h-.713l.93 6.572h.682c.031-.589.403-1.023.868-1.023.341 0 .868.124 1.457.341a10.1 10.1 0 0 0 3.658.713c3.596 0 6.324-2.449 6.324-5.642 0-2.542-1.705-4.557-5.797-6.789-3.255-1.767-4.557-3.131-4.557-4.836 0-1.705 1.302-2.852 3.224-2.852 1.395 0 2.697.589 3.782 1.705.961.992 1.395 1.798 1.891 3.627h.775l-.682-6.603zM446.394 239h8.618v-.589c-2.325-.186-2.697-.558-2.728-2.79v-6.386h9.393v6.045c-.031 2.635-.31 2.976-2.728 3.131V239h8.618v-.589c-2.325-.186-2.697-.558-2.728-2.79v-13.764c.031-2.263.341-2.573 2.728-2.79v-.589h-8.618v.589c2.387.186 2.697.496 2.728 2.79v6.014h-9.393v-6.014c.031-2.263.341-2.573 2.728-2.79v-.589h-8.618v.589c2.387.186 2.697.496 2.728 2.79v13.423c-.031 2.635-.31 2.976-2.728 3.131V239zm45.3-5.239h-.868c-1.488 3.286-2.883 4.061-7.316 4.092h-.837c-3.224-.093-3.255-.124-3.255-1.333v-7.657h4.774c2.604.062 3.007.434 3.41 2.976h.713v-7.192h-.713c-.372 2.511-.806 2.883-3.41 2.945h-4.774v-6.882c.031-.93.155-1.054 1.023-1.054h4.185c3.596.062 4.216.496 4.712 3.255h.775l-.093-4.433h-16.461v.589c2.263.155 2.635.558 2.697 2.79v13.764c-.062 2.232-.465 2.666-2.697 2.79V239h16.74l1.395-5.239zm5.93 5.239h8.804c3.596 0 6.851-1.023 8.773-2.759 2.015-1.829 3.162-4.588 3.162-7.595 0-2.79-.899-5.208-2.635-6.913-2.108-2.139-5.487-3.255-9.734-3.255h-8.37v.589c2.449.217 2.697.465 2.728 2.79v13.764c-.031 2.263-.403 2.635-2.728 2.79V239zm5.89-18.166c0-.961.31-1.209 1.612-1.209 2.697 0 4.681.496 6.169 1.55 2.418 1.674 3.689 4.34 3.689 7.688 0 3.658-1.271 6.262-3.782 7.719-1.581.899-3.379 1.271-6.076 1.271-1.24 0-1.612-.279-1.612-1.271v-15.748zM540.918 239h8.556v-.465c-2.387 0-2.914-.341-2.945-1.829v-18.6l-.248-.062-5.58 2.821v.434c1.209-.465 1.953-.682 2.232-.682.651 0 .93.465.93 1.457v14.043c-.062 1.953-.589 2.387-2.945 2.418V239zm25.832-11.501c3.069-1.643 4.154-2.945 4.154-5.053 0-2.573-2.201-4.402-5.332-4.402-3.379 0-5.89 2.077-5.89 4.898 0 2.015.589 2.914 3.844 5.766-3.379 2.573-4.03 3.472-4.03 5.611 0 3.038 2.418 5.115 5.952 5.115 3.72 0 6.107-2.046 6.107-5.239 0-2.418-1.054-3.875-4.805-6.696zm-.558 3.193c2.263 1.612 3.007 2.728 3.007 4.464 0 2.015-1.395 3.41-3.41 3.41-2.356 0-3.937-1.798-3.937-4.464 0-2.015.651-3.286 2.48-4.774l1.86 1.364zm-.341-3.751c-2.759-1.798-3.875-3.224-3.875-4.96 0-1.798 1.395-3.069 3.348-3.069 2.108 0 3.441 1.364 3.441 3.503 0 1.891-.806 3.162-2.914 4.526zm21.399.558c3.069-1.643 4.154-2.945 4.154-5.053 0-2.573-2.201-4.402-5.332-4.402-3.379 0-5.89 2.077-5.89 4.898 0 2.015.589 2.914 3.844 5.766-3.379 2.573-4.03 3.472-4.03 5.611 0 3.038 2.418 5.115 5.952 5.115 3.72 0 6.107-2.046 6.107-5.239 0-2.418-1.054-3.875-4.805-6.696zm-.558 3.193c2.263 1.612 3.007 2.728 3.007 4.464 0 2.015-1.395 3.41-3.41 3.41-2.356 0-3.937-1.798-3.937-4.464 0-2.015.651-3.286 2.48-4.774l1.86 1.364zm-.341-3.751c-2.759-1.798-3.875-3.224-3.875-4.96 0-1.798 1.395-3.069 3.348-3.069 2.108 0 3.441 1.364 3.441 3.503 0 1.891-.806 3.162-2.914 4.526zm27.041 4.898h-3.162v-13.795h-1.364l-9.734 13.795v1.984h8.711V239h2.387v-5.177h3.162v-1.984zm-5.58 0h-7.44l7.44-10.633v10.633z" fill="#555"/></g></svg>